<svg width="683" height="754" viewBox="0 0 683 754" fill="none" xmlns="http://www.w3.org/2000/svg">
<rect x="130" y="327" width="200" height="200" rx="10" fill="white"/>
<rect x="358" y="327" width="200" height="200" rx="10" fill="#09090B"/>
<rect x="130" y="100" width="200" height="200" rx="10" fill="#09090B"/>
<rect x="358" y="100" width="200" height="200" rx="10" fill="white"/>
<rect x="130" y="554" width="200" height="200" rx="10" fill="#09090B"/>
<rect x="358" y="554" width="200" height="200" rx="10" fill="white"/>
<path d="M583 110C583 104.477 587.477 100 593 100H683V300H593C587.477 300 583 295.523 583 290V110Z" fill="#09090B"/>
<path d="M583 337C583 331.477 587.477 327 593 327H683V527H593C587.477 527 583 522.523 583 517V337Z" fill="white"/>
<path d="M583 564C583 558.477 587.477 554 593 554H683V754H593C587.477 754 583 749.523 583 744V564Z" fill="#09090B"/>
<path d="M0 100H95C100.523 100 105 104.477 105 110V290C105 295.523 100.523 300 95 300H0V100Z" fill="white"/>
<path d="M0 327H95C100.523 327 105 331.477 105 337V517C105 522.523 100.523 527 95 527H0V327Z" fill="#09090B"/>
<path d="M0 554H95C100.523 554 105 558.477 105 564V744C105 749.523 100.523 754 95 754H0V554Z" fill="white"/>
<path d="M0 10C0 4.47715 4.47715 0 10 0H100V63C100 68.5228 95.5228 73 90 73H0V10Z" fill="#09090B"/>
<path d="M130 0H330V63C330 68.5228 325.523 73 320 73H140C134.477 73 130 68.5228 130 63V0Z" fill="white"/>
<path d="M358 0H558V63C558 68.5228 553.523 73 548 73H368C362.477 73 358 68.5228 358 63V0Z" fill="#09090B"/>
<path d="M583 0H673C678.523 0 683 4.47715 683 10V73H593C587.477 73 583 68.5228 583 63V0Z" fill="white"/>
</svg>
